<svg width="80" height="80" viewBox="0 0 80 80" fill="none" xmlns="http://www.w3.org/2000/svg">
<path fill-rule="evenodd" clip-rule="evenodd" d="M27.5536 45.7466L38.0454 50.9925V38.2647L27.5536 34.0679V45.7466ZM39.3569 54.426C39.1562 54.426 38.9556 54.3801 38.7707 54.2883L25.6559 47.7309C25.2113 47.5079 24.9307 47.0542 24.9307 46.5571V32.1309C24.9307 31.6955 25.1471 31.2889 25.5064 31.045C25.8684 30.8011 26.3287 30.7525 26.7287 30.9125L39.8435 36.1584C40.3418 36.3591 40.6684 36.8404 40.6684 37.3768V53.1145C40.6684 53.5696 40.4323 53.9919 40.0454 54.2306C39.8356 54.3604 39.5969 54.426 39.3569 54.426Z" fill="#C4D600"/>
<path fill-rule="evenodd" clip-rule="evenodd" d="M40.6684 38.2652V50.9931L51.1602 45.7472V34.0685L40.6684 38.2652ZM39.3569 54.4265C39.1169 54.4265 38.8782 54.3597 38.6684 54.2298C38.2815 53.9911 38.0454 53.5688 38.0454 53.1151V37.3774C38.0454 36.841 38.372 36.3583 38.8703 36.159L51.9851 30.9131C52.3851 30.7518 52.8441 30.8003 53.2074 31.0456C53.5667 31.2895 53.7831 31.6961 53.7831 32.1315V46.5577C53.7831 47.0547 53.5025 47.5085 53.0579 47.7301L39.9431 54.2875C39.7582 54.3806 39.5575 54.4265 39.3569 54.4265Z" fill="#C4D600"/>
<path fill-rule="evenodd" clip-rule="evenodd" d="M29.4415 31.9979L39.3575 35.9638L49.2723 31.9979L39.3575 27.0405L29.4415 31.9979ZM39.3575 38.6891C39.1923 38.6891 39.027 38.6576 38.8697 38.5946L25.7549 33.3487C25.2749 33.1572 24.9536 32.7022 24.9326 32.1854C24.9103 31.67 25.1936 31.1887 25.6552 30.9579L38.77 24.4005C39.1398 24.2156 39.5752 24.2156 39.9438 24.4005L53.0585 30.9579C53.5202 31.1887 53.8034 31.67 53.7825 32.1854C53.7602 32.7022 53.4389 33.1572 52.9589 33.3487L39.8441 38.5946C39.6867 38.6576 39.5228 38.6891 39.3575 38.6891Z" fill="#C4D600"/>
<path fill-rule="evenodd" clip-rule="evenodd" d="M14.4389 3.27871H7.88154C7.1563 3.27871 6.57007 2.69117 6.57007 1.96724C6.57007 1.2433 7.1563 0.655762 7.88154 0.655762H14.4389C15.1642 0.655762 15.7504 1.2433 15.7504 1.96724C15.7504 2.69117 15.1642 3.27871 14.4389 3.27871Z" fill="#C4D600"/>
<path fill-rule="evenodd" clip-rule="evenodd" d="M2.63565 3.27871H1.32417C0.598925 3.27871 0.0126953 2.69117 0.0126953 1.96724C0.0126953 1.2433 0.598925 0.655762 1.32417 0.655762H2.63565C3.36089 0.655762 3.94712 1.2433 3.94712 1.96724C3.94712 2.69117 3.36089 3.27871 2.63565 3.27871Z" fill="#C4D600"/>
<path fill-rule="evenodd" clip-rule="evenodd" d="M6.57007 8.52456H1.32417C0.598925 8.52456 0.0126953 7.93702 0.0126953 7.21309C0.0126953 6.48915 0.598925 5.90161 1.32417 5.90161H6.57007C7.29532 5.90161 7.88155 6.48915 7.88155 7.21309C7.88155 7.93702 7.29532 8.52456 6.57007 8.52456Z" fill="#C4D600"/>
<path fill-rule="evenodd" clip-rule="evenodd" d="M14.4388 8.52456H11.8159C11.0906 8.52456 10.5044 7.93702 10.5044 7.21309C10.5044 6.48915 11.0906 5.90161 11.8159 5.90161H14.4388C15.1641 5.90161 15.7503 6.48915 15.7503 7.21309C15.7503 7.93702 15.1641 8.52456 14.4388 8.52456Z" fill="#C4D600"/>
<path fill-rule="evenodd" clip-rule="evenodd" d="M77.3898 74.0984H70.8325C70.1072 74.0984 69.521 73.5109 69.521 72.7869C69.521 72.063 70.1072 71.4755 70.8325 71.4755H77.3898C78.1151 71.4755 78.7013 72.063 78.7013 72.7869C78.7013 73.5109 78.1151 74.0984 77.3898 74.0984Z" fill="#C4D600"/>
<path fill-rule="evenodd" clip-rule="evenodd" d="M65.5866 74.0984H64.2751C63.5499 74.0984 62.9636 73.5109 62.9636 72.7869C62.9636 72.063 63.5499 71.4755 64.2751 71.4755H65.5866C66.3118 71.4755 66.898 72.063 66.898 72.7869C66.898 73.5109 66.3118 74.0984 65.5866 74.0984Z" fill="#C4D600"/>
<path fill-rule="evenodd" clip-rule="evenodd" d="M69.521 79.3443H64.2751C63.5499 79.3443 62.9636 78.7567 62.9636 78.0328C62.9636 77.3089 63.5499 76.7213 64.2751 76.7213H69.521C70.2462 76.7213 70.8325 77.3089 70.8325 78.0328C70.8325 78.7567 70.2462 79.3443 69.521 79.3443Z" fill="#C4D600"/>
<path fill-rule="evenodd" clip-rule="evenodd" d="M77.3898 79.3443H74.7668C74.0416 79.3443 73.4553 78.7567 73.4553 78.0328C73.4553 77.3089 74.0416 76.7213 74.7668 76.7213H77.3898C78.115 76.7213 78.7012 77.3089 78.7012 78.0328C78.7012 78.7567 78.115 79.3443 77.3898 79.3443Z" fill="#C4D600"/>
<path fill-rule="evenodd" clip-rule="evenodd" d="M62.9636 13.7705C62.2383 13.7705 61.6521 13.1829 61.6521 12.459V4.59016C61.6521 3.86623 62.2383 3.27869 62.9636 3.27869C63.6888 3.27869 64.2751 3.86623 64.2751 4.59016V12.459C64.2751 13.1829 63.6888 13.7705 62.9636 13.7705Z" fill="#C4D600"/>
<path fill-rule="evenodd" clip-rule="evenodd" d="M66.8979 9.83609H59.029C58.3038 9.83609 57.7175 9.24855 57.7175 8.52461C57.7175 7.80068 58.3038 7.21313 59.029 7.21313H66.8979C67.6231 7.21313 68.2093 7.80068 68.2093 8.52461C68.2093 9.24855 67.6231 9.83609 66.8979 9.83609Z" fill="#C4D600"/>
<path fill-rule="evenodd" clip-rule="evenodd" d="M11.816 79.3443C11.4802 79.3443 11.1445 79.2158 10.8887 78.96C10.376 78.4473 10.376 77.6184 10.8887 77.1056L18.7576 69.2368C19.2704 68.724 20.0992 68.724 20.612 69.2368C21.1248 69.7496 21.1248 70.5784 20.612 71.0912L12.7432 78.96C12.4874 79.2158 12.1517 79.3443 11.816 79.3443Z" fill="#C4D600"/>
<path fill-rule="evenodd" clip-rule="evenodd" d="M19.6848 79.3443C19.3491 79.3443 19.0133 79.2158 18.7576 78.96L10.8887 71.0912C10.376 70.5784 10.376 69.7496 10.8887 69.2368C11.4015 68.724 12.2304 68.724 12.7432 69.2368L20.612 77.1056C21.1248 77.6184 21.1248 78.4473 20.612 78.96C20.3563 79.2158 20.0205 79.3443 19.6848 79.3443Z" fill="#C4D600"/>
<path fill-rule="evenodd" clip-rule="evenodd" d="M26.2408 33.4427C25.9444 33.4427 25.648 33.343 25.4014 33.1384L17.8985 26.8853H11.8159C11.0906 26.8853 10.5044 26.2977 10.5044 25.5738C10.5044 24.8499 11.0906 24.2623 11.8159 24.2623H18.3732C18.6801 24.2623 18.9778 24.3699 19.2139 24.5666L27.0828 31.124C27.6375 31.5869 27.7136 32.4145 27.2506 32.9705C26.9896 33.2813 26.6172 33.4427 26.2408 33.4427Z" fill="#C4D600"/>
<path fill-rule="evenodd" clip-rule="evenodd" d="M52.4729 33.4427C52.0965 33.4427 51.7241 33.2813 51.4631 32.9705C51.0001 32.4145 51.0762 31.5869 51.631 31.124L59.4998 24.5666C59.7359 24.3699 60.0336 24.2623 60.3405 24.2623H66.8978C67.6231 24.2623 68.2093 24.8499 68.2093 25.5738C68.2093 26.2977 67.6231 26.8853 66.8978 26.8853H60.8152L53.3123 33.1384C53.0657 33.343 52.7693 33.4427 52.4729 33.4427Z" fill="#C4D600"/>
<path fill-rule="evenodd" clip-rule="evenodd" d="M66.8978 54.4262H60.3405C60.0336 54.4262 59.7359 54.3187 59.4998 54.1219L51.631 47.5645C51.0762 47.1016 51.0001 46.2741 51.4631 45.718C51.9273 45.1619 52.7536 45.0859 53.3123 45.5501L60.8152 51.8032H66.8978C67.6231 51.8032 68.2093 52.3908 68.2093 53.1147C68.2093 53.8387 67.6231 54.4262 66.8978 54.4262Z" fill="#C4D600"/>
<path fill-rule="evenodd" clip-rule="evenodd" d="M18.3732 54.4262H11.8159C11.0906 54.4262 10.5044 53.8387 10.5044 53.1147C10.5044 52.3908 11.0906 51.8032 11.8159 51.8032H17.8985L25.4014 45.5501C25.9614 45.0859 26.7864 45.1619 27.2506 45.718C27.7136 46.2741 27.6375 47.1016 27.0828 47.5645L19.2139 54.1219C18.9778 54.3187 18.6801 54.4262 18.3732 54.4262Z" fill="#C4D600"/>
<path fill-rule="evenodd" clip-rule="evenodd" d="M39.3569 26.8853C38.6316 26.8853 38.0454 26.2977 38.0454 25.5738V15.082C38.0454 14.358 38.6316 13.7705 39.3569 13.7705C40.0821 13.7705 40.6684 14.358 40.6684 15.082V25.5738C40.6684 26.2977 40.0821 26.8853 39.3569 26.8853Z" fill="#C4D600"/>
<path fill-rule="evenodd" clip-rule="evenodd" d="M39.3569 66.2296C38.6316 66.2296 38.0454 65.642 38.0454 64.9181V53.1148C38.0454 52.3909 38.6316 51.8033 39.3569 51.8033C40.0821 51.8033 40.6684 52.3909 40.6684 53.1148V64.9181C40.6684 65.642 40.0821 66.2296 39.3569 66.2296Z" fill="#C4D600"/>
<path fill-rule="evenodd" clip-rule="evenodd" d="M2.63613 57.0492H10.505V49.1803H2.63613V57.0492ZM11.8165 59.6721H1.32466C0.599413 59.6721 0.0131836 59.0846 0.0131836 58.3607V47.8688C0.0131836 47.1449 0.599413 46.5574 1.32466 46.5574H11.8165C12.5404 46.5574 13.1279 47.1449 13.1279 47.8688V58.3607C13.1279 59.0846 12.5404 59.6721 11.8165 59.6721Z" fill="#C4D600"/>
<path fill-rule="evenodd" clip-rule="evenodd" d="M68.2099 57.0492H76.0787V49.1803H68.2099V57.0492ZM77.3902 59.6721H66.8984C66.1731 59.6721 65.5869 59.0846 65.5869 58.3607V47.8688C65.5869 47.1449 66.1731 46.5574 66.8984 46.5574H77.3902C78.1141 46.5574 78.7017 47.1449 78.7017 47.8688V58.3607C78.7017 59.0846 78.1141 59.6721 77.3902 59.6721Z" fill="#C4D600"/>
<path fill-rule="evenodd" clip-rule="evenodd" d="M2.63613 29.5083H10.505V21.6394H2.63613V29.5083ZM11.8165 32.1312H1.32466C0.599413 32.1312 0.0131836 31.5437 0.0131836 30.8198V20.328C0.0131836 19.604 0.599413 19.0165 1.32466 19.0165H11.8165C12.5404 19.0165 13.1279 19.604 13.1279 20.328V30.8198C13.1279 31.5437 12.5404 32.1312 11.8165 32.1312Z" fill="#C4D600"/>
<path fill-rule="evenodd" clip-rule="evenodd" d="M35.423 74.0984H43.2919V66.2295H35.423V74.0984ZM44.6033 76.7213H34.1115C33.3863 76.7213 32.8 76.1338 32.8 75.4098V64.918C32.8 64.1941 33.3863 63.6066 34.1115 63.6066H44.6033C45.3273 63.6066 45.9148 64.1941 45.9148 64.918V75.4098C45.9148 76.1338 45.3273 76.7213 44.6033 76.7213Z" fill="#C4D600"/>
<path fill-rule="evenodd" clip-rule="evenodd" d="M35.423 13.7705H43.2919V5.90164H35.423V13.7705ZM44.6033 16.3934H34.1115C33.3863 16.3934 32.8 15.8059 32.8 15.082V4.59016C32.8 3.86623 33.3863 3.27869 34.1115 3.27869H44.6033C45.3273 3.27869 45.9148 3.86623 45.9148 4.59016V15.082C45.9148 15.8059 45.3273 16.3934 44.6033 16.3934Z" fill="#C4D600"/>
<path fill-rule="evenodd" clip-rule="evenodd" d="M68.2099 29.5083H76.0787V21.6394H68.2099V29.5083ZM77.3902 32.1312H66.8984C66.1731 32.1312 65.5869 31.5437 65.5869 30.8198V20.328C65.5869 19.604 66.1731 19.0165 66.8984 19.0165H77.3902C78.1141 19.0165 78.7017 19.604 78.7017 20.328V30.8198C78.7017 31.5437 78.1141 32.1312 77.3902 32.1312Z" fill="#C4D600"/>
</svg>
