<svg width="80" height="80" viewBox="0 0 80 80" fill="none" xmlns="http://www.w3.org/2000/svg">
<path fill-rule="evenodd" clip-rule="evenodd" d="M39.357 16.3934C37.9104 16.3934 36.734 17.5698 36.734 19.0163C36.734 20.4629 37.9104 21.6393 39.357 21.6393C40.8035 21.6393 41.9799 20.4629 41.9799 19.0163C41.9799 17.5698 40.8035 16.3934 39.357 16.3934ZM39.357 24.2623C36.4639 24.2623 34.1111 21.9095 34.1111 19.0163C34.1111 16.1232 36.4639 13.7704 39.357 13.7704C42.2501 13.7704 44.6029 16.1232 44.6029 19.0163C44.6029 21.9095 42.2501 24.2623 39.357 24.2623Z" fill="#C4D600"/>
<path fill-rule="evenodd" clip-rule="evenodd" d="M39.357 32.1311C37.9104 32.1311 36.734 33.3075 36.734 34.7541C36.734 36.2006 37.9104 37.377 39.357 37.377C40.8035 37.377 41.9799 36.2006 41.9799 34.7541C41.9799 33.3075 40.8035 32.1311 39.357 32.1311ZM39.357 40C36.4639 40 34.1111 37.6472 34.1111 34.7541C34.1111 31.861 36.4639 29.5082 39.357 29.5082C42.2501 29.5082 44.6029 31.861 44.6029 34.7541C44.6029 37.6472 42.2501 40 39.357 40Z" fill="#C4D600"/>
<path fill-rule="evenodd" clip-rule="evenodd" d="M34.111 54.4262H44.6028V54.2806C44.6028 50.7829 45.6756 47.3429 47.7044 44.3344C55.8671 32.1022 53.2743 16.6413 41.4133 6.71733C41.412 6.71602 41.412 6.71602 41.4107 6.71602L39.3569 4.99143L37.3031 6.71602C25.4422 16.64 22.8481 32.0996 30.9949 44.3134C33.0382 47.339 34.111 50.779 34.111 54.2793V54.4262ZM45.9143 57.0491H32.7995C32.0756 57.0491 31.4881 56.4616 31.4881 55.7377V54.2793C31.4881 51.2603 30.5949 48.4091 28.8363 45.8019C19.8972 32.4039 22.6959 15.5173 35.6179 4.70421L38.5136 2.27405C39.0015 1.86487 39.7123 1.86487 40.2002 2.27405L43.0972 4.70552C56.0205 15.5186 58.8179 32.4052 49.8999 45.7704C48.1189 48.4118 47.2258 51.2642 47.2258 54.2806V55.7377C47.2258 56.4616 46.6382 57.0491 45.9143 57.0491Z" fill="#C4D600"/>
<path fill-rule="evenodd" clip-rule="evenodd" d="M72.144 60.9836H69.521C69.521 58.0905 67.1682 55.7377 64.2751 55.7377C61.382 55.7377 59.0292 58.0905 59.0292 60.9836H56.4062C56.4062 56.6439 59.9354 53.1147 64.2751 53.1147C68.6148 53.1147 72.144 56.6439 72.144 60.9836Z" fill="#C4D600"/>
<path fill-rule="evenodd" clip-rule="evenodd" d="M23.6193 60.9836H20.9963C20.9963 58.0905 18.6436 55.7377 15.7504 55.7377C12.8573 55.7377 10.5045 58.0905 10.5045 60.9836H7.88159C7.88159 56.6439 11.4108 53.1147 15.7504 53.1147C20.0901 53.1147 23.6193 56.6439 23.6193 60.9836Z" fill="#C4D600"/>
<path fill-rule="evenodd" clip-rule="evenodd" d="M2.63565 76.7213H76.0783V67.541C76.0783 63.9252 73.1366 60.9836 69.5209 60.9836C65.9052 60.9836 62.9635 63.9252 62.9635 67.541C62.9635 68.2649 62.3773 68.8525 61.652 68.8525C60.9281 68.8525 60.3406 68.2649 60.3406 67.541C60.3406 62.8918 58.2383 62.2951 56.4061 62.2951C54.237 62.2951 52.4717 64.0603 52.4717 66.2295C52.4717 69.8452 49.2363 72.7869 45.2586 72.7869C42.8219 72.7869 40.6632 71.6826 39.357 69.9961C38.0507 71.6826 35.892 72.7869 33.4553 72.7869C29.4776 72.7869 26.2422 69.8452 26.2422 66.2295C26.2422 64.0603 24.477 62.2951 22.3078 62.2951C19.2022 62.2951 18.3734 65.5921 18.3734 67.541C18.3734 68.2649 17.7858 68.8525 17.0619 68.8525C16.3379 68.8525 15.7504 68.2649 15.7504 67.541C15.7504 63.9252 12.8088 60.9836 9.19302 60.9836C5.57729 60.9836 2.63565 63.9252 2.63565 67.541V76.7213ZM77.3897 79.3442H1.32417C0.600236 79.3442 0.0126953 78.7567 0.0126953 78.0328V67.541C0.0126953 62.4787 4.13073 58.3607 9.19302 58.3607C12.4835 58.3607 15.3753 60.101 16.9963 62.7095C18.0534 60.9351 19.8002 59.6721 22.3078 59.6721C25.9235 59.6721 28.8652 62.6138 28.8652 66.2295C28.8652 68.3987 30.9242 70.1639 33.4553 70.1639C35.9865 70.1639 38.0455 68.3987 38.0455 66.2295C38.0455 65.5056 38.633 64.918 39.357 64.918C40.0809 64.918 40.6684 65.5056 40.6684 66.2295C40.6684 68.3987 42.7275 70.1639 45.2586 70.1639C47.7897 70.1639 49.8488 68.3987 49.8488 66.2295C49.8488 62.6138 52.7904 59.6721 56.4061 59.6721C58.052 59.6721 60.4481 60.1351 61.8422 62.5154C63.4842 60.0144 66.313 58.3607 69.5209 58.3607C74.5819 58.3607 78.7012 62.4787 78.7012 67.541V78.0328C78.7012 78.7567 78.115 79.3442 77.3897 79.3442Z" fill="#C4D600"/>
<path fill-rule="evenodd" clip-rule="evenodd" d="M34.111 64.918C33.3871 64.918 32.7996 64.3305 32.7996 63.6065V59.6721C32.7996 58.9482 33.3871 58.3607 34.111 58.3607C34.835 58.3607 35.4225 58.9482 35.4225 59.6721V63.6065C35.4225 64.3305 34.835 64.918 34.111 64.918Z" fill="#C4D600"/>
<path fill-rule="evenodd" clip-rule="evenodd" d="M44.6027 64.918C43.8788 64.918 43.2913 64.3305 43.2913 63.6065V59.6721C43.2913 58.9482 43.8788 58.3607 44.6027 58.3607C45.3267 58.3607 45.9142 58.9482 45.9142 59.6721V63.6065C45.9142 64.3305 45.3267 64.918 44.6027 64.918Z" fill="#C4D600"/>
<path fill-rule="evenodd" clip-rule="evenodd" d="M39.3569 62.2951C38.633 62.2951 38.0454 61.7075 38.0454 60.9836V59.6721C38.0454 58.9482 38.633 58.3607 39.3569 58.3607C40.0808 58.3607 40.6684 58.9482 40.6684 59.6721V60.9836C40.6684 61.7075 40.0808 62.2951 39.3569 62.2951Z" fill="#C4D600"/>
<path fill-rule="evenodd" clip-rule="evenodd" d="M58.9908 50.4905C58.4557 50.4905 57.9232 50.3279 57.4655 50.0079L49.2019 44.2243L50.7062 42.0747L58.9698 47.8597L59.0288 42.5508C59.0288 33.137 53.3265 29.3888 53.0826 29.2341L54.478 27.0125C54.7717 27.1961 61.6517 31.6223 61.6517 42.5508V47.8295C61.6517 48.8249 61.1035 49.7285 60.2196 50.1888C59.8314 50.3908 59.4104 50.4905 58.9908 50.4905Z" fill="#C4D600"/>
<path fill-rule="evenodd" clip-rule="evenodd" d="M19.7232 50.4905C19.3036 50.4905 18.8826 50.3908 18.4944 50.1888C17.6105 49.7285 17.0623 48.8249 17.0623 47.8295V42.5508C17.0623 31.6223 23.9423 27.1961 24.236 27.0125L25.6314 29.2341C25.3875 29.3888 19.6852 33.137 19.6852 42.5508V47.8295L28.0078 42.0747L29.5121 44.2243L21.2485 50.0079C20.7908 50.3279 20.2583 50.4905 19.7232 50.4905Z" fill="#C4D600"/>
<path fill-rule="evenodd" clip-rule="evenodd" d="M47.2636 49.1803H31.4511C30.7272 49.1803 30.1396 48.5927 30.1396 47.8688C30.1396 47.1449 30.7272 46.5573 31.4511 46.5573H47.2636C47.9875 46.5573 48.5751 47.1449 48.5751 47.8688C48.5751 48.5927 47.9875 49.1803 47.2636 49.1803Z" fill="#C4D600"/>
<path fill-rule="evenodd" clip-rule="evenodd" d="M60.3406 19.0163C60.0049 19.0163 59.6691 18.8878 59.4134 18.6321C58.9006 18.1193 58.9006 17.2904 59.4134 16.7777L64.6593 11.5317C65.1721 11.019 66.0009 11.019 66.5137 11.5317C67.0265 12.0445 67.0265 12.8734 66.5137 13.3862L61.2678 18.6321C61.0121 18.8878 60.6763 19.0163 60.3406 19.0163Z" fill="#C4D600"/>
<path fill-rule="evenodd" clip-rule="evenodd" d="M65.5865 19.0163C65.2508 19.0163 64.915 18.8878 64.6593 18.6321L59.4134 13.3862C58.9006 12.8734 58.9006 12.0445 59.4134 11.5317C59.9262 11.019 60.755 11.019 61.2678 11.5317L66.5137 16.7777C67.0265 17.2904 67.0265 18.1193 66.5137 18.6321C66.258 18.8878 65.9223 19.0163 65.5865 19.0163Z" fill="#C4D600"/>
<path fill-rule="evenodd" clip-rule="evenodd" d="M76.0783 25.5737C76.0783 26.2977 75.492 26.8852 74.7668 26.8852C74.0416 26.8852 73.4553 26.2977 73.4553 25.5737C73.4553 24.8498 74.0416 24.2623 74.7668 24.2623C75.492 24.2623 76.0783 24.8498 76.0783 25.5737Z" fill="#C4D600"/>
<path fill-rule="evenodd" clip-rule="evenodd" d="M11.8161 42.6229C11.8161 43.3468 11.2285 43.9343 10.5046 43.9343C9.78066 43.9343 9.19312 43.3468 9.19312 42.6229C9.19312 41.8989 9.78066 41.3114 10.5046 41.3114C11.2285 41.3114 11.8161 41.8989 11.8161 42.6229Z" fill="#C4D600"/>
<path fill-rule="evenodd" clip-rule="evenodd" d="M5.25466 7.21308C5.75171 7.58685 6.1963 8.03144 6.57007 8.52849C6.94384 8.03144 7.38712 7.58685 7.88548 7.21308C7.38712 6.83931 6.94384 6.39472 6.57007 5.89767C6.1963 6.39472 5.75171 6.83931 5.25466 7.21308ZM6.57007 13.7705C5.84614 13.7705 5.2586 13.1829 5.2586 12.459C5.2586 10.2898 3.49335 8.52455 1.32417 8.52455C0.600236 8.52455 0.0126953 7.93701 0.0126953 7.21308C0.0126953 6.48914 0.600236 5.9016 1.32417 5.9016C3.49335 5.9016 5.2586 4.13636 5.2586 1.96718C5.2586 1.24324 5.84614 0.655701 6.57007 0.655701C7.29401 0.655701 7.88155 1.24324 7.88155 1.96718C7.88155 4.13636 9.64679 5.9016 11.816 5.9016C12.5399 5.9016 13.1274 6.48914 13.1274 7.21308C13.1274 7.93701 12.5399 8.52455 11.816 8.52455C9.64679 8.52455 7.88155 10.2898 7.88155 12.459C7.88155 13.1829 7.29401 13.7705 6.57007 13.7705Z" fill="#C4D600"/>
</svg>
